<svg width="530" height="653" viewBox="0 0 530 653" fill="none" xmlns="http://www.w3.org/2000/svg">
<path d="M136.5 102L87 144.5L59.5 198.5C46.1667 236.5 19.5 313.3 19.5 316.5V412L59.5 523.5L116 580.5C147.833 599.167 213.8 636.5 223 636.5C234.5 636.5 324.5 623 335.5 616.5C346.5 610 419 573.5 421.5 570.5C423.5 568.1 463.667 525.833 483.5 505C493.833 472.833 515 406.6 517 399C519.5 389.5 498 275 497.5 270.5C497.1 266.9 469.333 204 455.5 173L387.5 83.5L313.5 41L260.5 28C238.167 31.5 192.8 39 190 41C187.2 43 153.167 82.5 136.5 102Z" fill="white"/>
<path d="M60.7126 413.93C60.7126 413.93 50.4626 315.78 106.553 210.61C106.553 210.61 124.353 240.27 166.423 237.58C208.493 234.89 234.913 209.54 237.073 168.55C239.233 127.56 208.493 103.29 182.063 95.2C182.063 95.2 229.813 39.8 278.753 39.73L319.593 66.62L369.753 180.96L342.783 323.88L278.753 444.7L203.103 454.94L138.383 403.16L60.7226 413.94L60.7126 413.93Z" fill="#FFC533"/>
<path d="M160.782 428.58C160.782 428.58 252.172 412.32 313.122 296.9C374.062 181.48 319.592 82.79 319.592 82.79L382.692 160.45L396.712 313.62V379.96L384.962 432.81L194.462 458.7L160.782 428.58Z" fill="#FE7F33"/>
<path d="M297.503 446.69C297.503 446.69 383.233 367.01 377.833 270.47C372.433 173.93 310.413 42.34 265.653 34.25C220.893 26.16 258.363 23.46 258.363 23.46L334.153 48.27L439.553 166.38L480.853 238.11V266.15L439.553 338.42L377.303 440.89L297.503 446.69Z" fill="#DF6033"/>
<path d="M273.462 602.16L289.642 582.74L366.762 450.07L420.722 345.2L440.772 354.55L467.152 412.08L501.062 387.5V444.68L415.842 585.44L267.532 640.99L250.272 629.66L269.152 595.69L273.462 602.16Z" fill="#D73781"/>
<path d="M260.802 609.17C260.802 609.17 415.053 578.97 471.143 434.97L481.393 400.48L519.143 389.66L490.022 477.57L452.272 551.44L272.143 645.84L260.812 609.17H260.802Z" fill="#F5307D"/>
<path d="M107.093 551.44C107.093 551.44 68.8026 505.1 60.7126 444.69L126.513 440.91L190.693 479.74L283.993 466.78L107.093 551.45V551.44Z" fill="#15D9C5"/>
<path d="M77.4724 501.8C77.4724 501.8 124.542 527.66 271.282 468.54L325.522 458.7L335.242 444.29L337.802 462.03L242.472 624.81L172.902 614.02L109.262 580.04L77.4824 501.79L77.4724 501.8Z" fill="#359DC1"/>
<path d="M481.093 281.72L432.843 355.15L466.953 405.3L514.823 367.01L481.093 281.72Z" fill="#359DC1"/>
<path d="M524.503 320.36C518.163 285.09 506.963 248.9 491.223 212.81C477.453 181.23 460.563 150.79 442.383 124.78C414.913 85.48 387.103 55.18 359.733 34.71C328.923 11.68 297.443 0 266.163 0C248.673 0 231.023 3.57999 213.703 10.65C198.263 16.95 183.223 25.84 167.733 37.83C142.513 57.34 116.993 84.34 87.4126 122.82C69.0826 146.66 52.8026 175.22 39.0126 207.71C24.4826 241.95 13.4026 279.03 6.10263 317.92C-2.91737 365.94 -1.94737 409.61 9.07263 451.43C18.5926 487.52 35.5726 521.63 60.9826 555.7C84.3626 587.05 114.503 611.43 150.553 628.18C185.203 644.27 223.403 652.43 264.113 652.43C304.823 652.43 343.373 643.85 378.113 627.63C413.663 611.02 444.363 586.39 466.913 556.38C491.603 523.52 508.523 490.77 518.643 456.28C531.113 413.8 533.083 368.07 524.503 320.36ZM487.103 327.08C489.173 338.61 490.523 349.72 491.213 360.44L472.663 387.54L455.923 351.05L482.853 306.73C484.443 313.48 485.863 320.27 487.093 327.09L487.103 327.08ZM43.4526 324.94C57.6126 249.57 86.0526 186.96 117.553 145.98C166.963 81.7 214.443 38 266.173 38C312.153 38 360.673 74.21 411.253 146.55C433.773 178.76 456.413 221.78 472.043 268.7L440.033 321.38L427.153 298.5L367.693 427.12L329.323 430.21L202.113 437.99L133.503 393.69L38.8926 401.07C36.9826 377.77 38.2626 352.55 43.4526 324.93V324.94ZM91.4526 532.98C68.6226 502.37 51.1426 468.89 43.0326 429.84L125.993 423.37L194.373 467.52L322.473 459.69L236.243 612.89C177.763 606.36 125.873 579.13 91.4526 532.99V532.98ZM436.533 533.56C398.903 583.66 336.613 613.11 268.683 614.38L357.233 457.06L386.903 454.67L429.393 362.75L467.663 446.2L488.953 415.08C481.643 462.65 460.913 501.08 436.523 533.56H436.533Z" fill="#0A0A0A"/>
<path d="M134.913 306.61C147.891 306.61 158.413 296.089 158.413 283.11C158.413 270.131 147.891 259.61 134.913 259.61C121.934 259.61 111.413 270.131 111.413 283.11C111.413 296.089 121.934 306.61 134.913 306.61Z" fill="white"/>
</svg>
